<svg width="24" height="24" viewBox="0 0 24 24" fill="none" xmlns="http://www.w3.org/2000/svg">
<g id="fluent:people-community-add-20-filled">
<path id="Vector" d="M12 7.80001C10.9752 7.80001 10.0596 8.26801 9.45475 9.00001C9.08155 9.4523 8.8356 9.99586 8.74221 10.5748C8.64883 11.1537 8.71138 11.747 8.92344 12.2937C9.13549 12.8404 9.48939 13.3207 9.94871 13.6852C10.408 14.0497 10.9562 14.2853 11.5368 14.3676C12.3259 12.8452 13.675 11.6885 15.3 11.1408V11.1C15.3 10.302 15.0168 9.57001 14.5452 9.00001C13.9404 8.26801 13.0248 7.80001 12 7.80001ZM22.4124 13.1064C21.6937 12.2654 20.7748 11.619 19.7404 11.2268C18.706 10.8346 17.5895 10.7093 16.494 10.8624C16.4608 10.2117 16.2859 9.57611 15.9816 9.00001H21C21.4773 9.00001 21.9352 9.18965 22.2727 9.52722C22.6103 9.86479 22.8 10.3226 22.8 10.8V11.4C22.8 11.976 22.668 12.5568 22.4124 13.1064ZM11.0484 15.6C10.883 16.1857 10.7994 16.7914 10.8 17.4C10.8 19.5564 11.8332 21.4704 13.4328 22.674C12.9599 22.759 12.4804 22.8011 12 22.8C8.23195 22.8 5.99995 20.3652 5.99995 18V17.4C5.99932 17.1635 6.04544 16.9291 6.13568 16.7104C6.22591 16.4918 6.35848 16.2931 6.52575 16.1258C6.69302 15.9585 6.8917 15.826 7.11037 15.7357C7.32904 15.6455 7.56339 15.5994 7.79995 15.6H11.0484ZM5.17795 15.9408C2.64595 15.2556 1.19995 13.3044 1.19995 11.4V10.8C1.19995 10.3226 1.38959 9.86479 1.72716 9.52722C2.06472 9.18965 2.52256 9.00001 2.99995 9.00001H8.01955C7.67743 9.64707 7.49904 10.3681 7.49995 11.1C7.49915 11.7197 7.62669 12.3328 7.87452 12.9007C8.12235 13.4687 8.48511 13.9792 8.93995 14.4H7.79995C7.26525 14.3999 6.74023 14.5426 6.27924 14.8135C5.81824 15.0844 5.43803 15.4736 5.17795 15.9408ZM7.19995 1.20001C8.07517 1.20001 8.91453 1.54769 9.5334 2.16656C10.1523 2.78543 10.5 3.6248 10.5 4.50001C10.5 5.37523 10.1523 6.21459 9.5334 6.83347C8.91453 7.45233 8.07517 7.80001 7.19995 7.80001C6.32474 7.80001 5.48537 7.45233 4.8665 6.83347C4.24763 6.21459 3.89995 5.37523 3.89995 4.50001C3.89995 3.6248 4.24763 2.78543 4.8665 2.16656C5.48537 1.54769 6.32474 1.20001 7.19995 1.20001ZM16.8 1.20001C17.6752 1.20001 18.5145 1.54769 19.1334 2.16656C19.7523 2.78543 20.1 3.6248 20.1 4.50001C20.1 5.37523 19.7523 6.21459 19.1334 6.83347C18.5145 7.45233 17.6752 7.80001 16.8 7.80001C15.9247 7.80001 15.0854 7.45233 14.4665 6.83347C13.8476 6.21459 13.5 5.37523 13.5 4.50001C13.5 3.6248 13.8476 2.78543 14.4665 2.16656C15.0854 1.54769 15.9247 1.20001 16.8 1.20001ZM17.4 22.8C18.8321 22.8 20.2056 22.2311 21.2183 21.2184C22.231 20.2057 22.8 18.8322 22.8 17.4C22.8 15.9678 22.231 14.5943 21.2183 13.5816C20.2056 12.5689 18.8321 12 17.4 12C15.9678 12 14.5943 12.5689 13.5816 13.5816C12.5689 14.5943 12 15.9678 12 17.4C12 18.8322 12.5689 20.2057 13.5816 21.2184C14.5943 22.2311 15.9678 22.8 17.4 22.8ZM17.4 14.4C17.5591 14.4 17.7117 14.4632 17.8242 14.5757C17.9367 14.6883 18 14.8409 18 15V16.8H19.8C19.9591 16.8 20.1117 16.8632 20.2242 16.9757C20.3367 17.0883 20.4 17.2409 20.4 17.4C20.4 17.5591 20.3367 17.7118 20.2242 17.8243C20.1117 17.9368 19.9591 18 19.8 18H18V19.8C18 19.9591 17.9367 20.1118 17.8242 20.2243C17.7117 20.3368 17.5591 20.4 17.4 20.4C17.2408 20.4 17.0882 20.3368 16.9757 20.2243C16.8632 20.1118 16.8 19.9591 16.8 19.8V18H15C14.8408 18 14.6882 17.9368 14.5757 17.8243C14.4632 17.7118 14.4 17.5591 14.4 17.4C14.4 17.2409 14.4632 17.0883 14.5757 16.9757C14.6882 16.8632 14.8408 16.8 15 16.8H16.8V15C16.8 14.8409 16.8632 14.6883 16.9757 14.5757C17.0882 14.4632 17.2408 14.4 17.4 14.4Z" fill="#AB2656"/>
</g>
</svg>
