<svg width="24" height="24" viewBox="0 0 24 24" fill="none" xmlns="http://www.w3.org/2000/svg">
<g id="fluent:data-trending-20-filled">
<path id="Vector" d="M5.4001 4.49998C5.4001 4.26128 5.30528 4.03236 5.13649 3.86358C4.96771 3.6948 4.73879 3.59998 4.5001 3.59998C4.2614 3.59998 4.03248 3.6948 3.8637 3.86358C3.69492 4.03236 3.6001 4.26128 3.6001 4.49998V17.1C3.6001 17.9752 3.94778 18.8146 4.56665 19.4334C5.18552 20.0523 6.02488 20.4 6.9001 20.4H19.5001C19.7388 20.4 19.9677 20.3052 20.1365 20.1364C20.3053 19.9676 20.4001 19.7387 20.4001 19.5C20.4001 19.2613 20.3053 19.0324 20.1365 18.8636C19.9677 18.6948 19.7388 18.6 19.5001 18.6H6.9001C6.0721 18.6 5.4001 17.928 5.4001 17.1V4.49998ZM15.3001 5.99998C15.0614 5.99998 14.8325 6.0948 14.6637 6.26358C14.4949 6.43236 14.4001 6.66128 14.4001 6.89998C14.4001 7.13867 14.4949 7.36759 14.6637 7.53637C14.8325 7.70515 15.0614 7.79998 15.3001 7.79998H17.3281L13.2001 11.928L11.4361 10.164C11.2673 9.99543 11.0386 9.90077 10.8001 9.90077C10.5616 9.90077 10.3328 9.99543 10.1641 10.164L6.8641 13.464C6.77567 13.5464 6.70475 13.6457 6.65556 13.7561C6.60637 13.8665 6.57992 13.9857 6.57779 14.1065C6.57566 14.2274 6.59788 14.3474 6.64315 14.4595C6.68842 14.5716 6.75579 14.6734 6.84125 14.7588C6.92671 14.8443 7.02851 14.9117 7.14058 14.9569C7.25265 15.0022 7.37268 15.0244 7.49352 15.0223C7.61437 15.0202 7.73354 14.9937 7.84394 14.9445C7.95434 14.8953 8.0537 14.8244 8.1361 14.736L10.8001 12.072L12.5641 13.836C12.7328 14.0045 12.9616 14.0992 13.2001 14.0992C13.4386 14.0992 13.6673 14.0045 13.8361 13.836L18.6001 9.07198V11.1C18.6001 11.3387 18.6949 11.5676 18.8637 11.7364C19.0325 11.9052 19.2614 12 19.5001 12C19.7388 12 19.9677 11.9052 20.1365 11.7364C20.3053 11.5676 20.4001 11.3387 20.4001 11.1V6.89998C20.4001 6.66128 20.3053 6.43236 20.1365 6.26358C19.9677 6.0948 19.7388 5.99998 19.5001 5.99998H15.3001Z" fill="#AB2656"/>
</g>
</svg>
