<svg width="24" height="24" viewBox="0 0 24 24" fill="none" xmlns="http://www.w3.org/2000/svg">
<g id="game-icons:corn">
<path id="Vector" d="M6.11939 1.83875L6.74358 4.93878C6.87261 4.76467 7.00361 4.59203 7.13658 4.4209L7.93655 3.39504L7.89089 4.69517C7.85855 5.61579 7.83244 6.53946 7.82104 7.45953C8.14636 7.29326 8.48245 7.12015 8.82858 6.93884C9.51717 6.57837 10.2025 6.21181 10.7618 5.90679C10.6212 5.59428 10.4703 5.28804 10.297 4.99273C9.56461 3.74539 8.46206 2.63689 6.11934 1.83879L6.11939 1.83875ZM20.1833 2.01331C20.1163 2.01404 20.0494 2.01748 19.9827 2.02362C20.1978 2.33618 20.4195 2.62737 20.6525 2.90056L21.2604 2.29273C20.9584 2.10992 20.592 2.00928 20.1833 2.01331ZM19.1218 2.23962C18.9841 2.29541 18.8497 2.35911 18.7193 2.4304C18.6336 2.47709 18.5476 2.52321 18.4618 2.56976C18.4983 2.62821 18.535 2.68615 18.5718 2.7432C18.7795 2.60656 18.9859 2.47273 19.1903 2.34321C19.1674 2.30918 19.1446 2.27417 19.1218 2.23962ZM21.857 2.88931L21.2287 3.51753C21.504 3.78729 21.7968 4.04065 22.1127 4.28328C22.1854 3.74656 22.0858 3.2675 21.8569 2.88931H21.857ZM17.7235 2.96923C17.4051 3.1406 17.0865 3.31142 16.7682 3.48204C16.8395 3.60251 16.9112 3.72003 16.9833 3.83454C17.2791 3.62293 17.5771 3.41444 17.8773 3.20909C17.8253 3.12965 17.774 3.0497 17.7236 2.96923H17.7235ZM19.6868 3.02782C19.4748 3.16181 19.2641 3.29775 19.0546 3.43564C19.206 3.63709 19.3648 3.83285 19.5307 4.02251L20.0652 3.48795C19.935 3.33792 19.8089 3.18447 19.6869 3.02778L19.6868 3.02782ZM16.0282 3.87992C15.6745 4.07039 15.3215 4.26211 14.9692 4.45507C15.0855 4.66817 15.2021 4.87273 15.3199 5.06895C15.6456 4.81834 15.9738 4.57101 16.3045 4.32701C16.2099 4.17958 16.1178 4.03054 16.0283 3.87996L16.0282 3.87992ZM18.363 3.89989C18.0587 4.10817 17.7566 4.31975 17.4569 4.53457C17.6808 4.84123 17.9129 5.1266 18.1582 5.39506L18.9441 4.60906C18.7408 4.38062 18.547 4.14407 18.363 3.89989ZM20.6437 4.10253L20.1145 4.63165C20.2761 4.78523 20.443 4.93313 20.6148 5.07509C20.7649 4.88065 20.9166 4.68453 21.0645 4.49314C20.9204 4.3661 20.78 4.23626 20.6437 4.10248L20.6437 4.10253ZM14.2319 4.86237C13.887 5.05501 13.5436 5.25037 13.2018 5.44845C13.3663 5.76973 13.5302 6.07292 13.6957 6.35848C14.0129 6.09888 14.3323 5.84207 14.654 5.58809C14.5074 5.3497 14.3667 5.10775 14.232 4.86246L14.2319 4.86237ZM16.7839 5.02348C16.4462 5.27311 16.1111 5.52617 15.7786 5.78262C16.0573 6.18668 16.3471 6.55465 16.6581 6.89496L17.5725 5.98057C17.2959 5.68114 17.0346 5.36323 16.7839 5.02348ZM21.7184 5.02695C21.5765 5.2107 21.4309 5.39899 21.2868 5.5857C21.371 5.64457 21.4559 5.70242 21.5415 5.75923C21.6008 5.64968 21.6596 5.53985 21.7193 5.4304C21.7718 5.33422 21.8202 5.2359 21.8644 5.1357C21.8155 5.09981 21.7668 5.06356 21.7184 5.02695ZM19.5296 5.2167L18.7546 5.99154C18.9791 6.19621 19.2129 6.39043 19.4552 6.57359C19.6755 6.28971 19.8921 6.01048 20.108 5.73124C19.9091 5.56668 19.7162 5.39505 19.5296 5.2167ZM12.4783 5.88589C12.4394 5.92835 12.4282 5.92306 12.4087 5.93698C12.3825 5.95573 12.3571 5.97223 12.3274 5.99103C12.2679 6.02853 12.1931 6.0732 12.1011 6.12659C11.9626 6.20638 11.8235 6.28502 11.6837 6.36251C11.5571 6.44196 11.431 6.52204 11.3052 6.60275C11.4812 6.99392 11.7176 7.3826 12.0084 7.78259C12.35 7.48581 12.6941 7.19205 13.0409 6.90134C12.8499 6.58189 12.6631 6.24368 12.4783 5.88589ZM7.01034 6.01728C4.26253 9.92595 1.59876 15.7474 1.8855 20.2565C2.1525 20.5534 2.46628 20.8634 2.7862 21.0979C3.14292 21.3596 3.49664 21.5085 3.71934 21.5085H3.74044L10.2686 22.1613C7.06097 17.8033 6.84956 11.8348 7.01034 6.01728ZM20.7772 6.24556C20.5688 6.51518 20.3599 6.78485 20.1472 7.05917C20.3184 7.1702 20.4919 7.27757 20.6677 7.3812C20.8259 7.08645 20.984 6.79151 21.1426 6.49648C21.0194 6.41489 20.8976 6.33124 20.7772 6.24556ZM15.1211 6.29745C14.7934 6.55698 14.468 6.81949 14.1451 7.08495C14.4646 7.56776 14.7971 7.99995 15.1581 8.39501L16.0726 7.48057C15.7356 7.11575 15.4212 6.72354 15.1211 6.29745ZM18.1691 6.5771L17.2546 7.49164C17.5368 7.74945 17.838 7.99254 18.1628 8.22696C18.4244 7.89508 18.6851 7.56253 18.945 7.22932C18.6727 7.02035 18.4146 6.80398 18.169 6.5772L18.1691 6.5771ZM10.551 6.98023C10.2344 7.15023 9.91722 7.31901 9.59939 7.48657C9.80995 7.99957 10.1194 8.55743 10.5005 9.12748C10.785 8.86718 11.0705 8.60951 11.3569 8.35498C11.0239 7.90545 10.7542 7.45826 10.551 6.98028L10.551 6.98023ZM13.4994 7.62171C13.1746 7.89494 12.8522 8.17085 12.532 8.44943C12.888 8.87478 13.297 9.31953 13.7542 9.79896L14.5726 8.98062C14.1898 8.56615 13.836 8.11671 13.4994 7.62171H13.4994ZM19.6327 7.72085C19.3782 8.0475 19.1227 8.37352 18.8665 8.6989C19.1272 8.86156 19.403 9.0214 19.6949 9.18078C19.8876 8.8283 20.0791 8.47514 20.2693 8.12131C20.049 7.99006 19.8368 7.85684 19.6327 7.72085ZM8.84948 7.87915C8.53061 8.04504 8.21087 8.20926 7.89028 8.37181C8.061 9.02187 8.44233 9.78382 8.96301 10.5713C9.26018 10.2848 9.55953 10.0005 9.86104 9.71853C9.43795 9.10104 9.09201 8.48262 8.84948 7.87915ZM16.6691 8.0772L15.7546 8.99159C16.0925 9.30017 16.4574 9.58784 16.8578 9.86459C17.1219 9.53758 17.3848 9.20954 17.6464 8.8805C17.299 8.62521 16.9744 8.3591 16.669 8.07715L16.6691 8.0772ZM11.8867 9.01662C11.5875 9.28287 11.2903 9.55138 10.9952 9.82212C11.3741 10.3223 11.7992 10.8218 12.2542 11.299L13.1571 10.396C12.6817 9.90064 12.2573 9.45035 11.8867 9.01662ZM18.345 9.3596C18.0888 9.68239 17.8313 10.0042 17.5725 10.325C17.9213 10.5347 18.2974 10.7408 18.7019 10.9478C18.8997 10.606 19.0949 10.2627 19.2873 9.91784C18.9558 9.73526 18.6421 9.54987 18.345 9.35956L18.345 9.3596ZM15.1691 9.5772L14.3506 10.3955C14.7372 10.7641 15.1405 11.1147 15.5592 11.4463C15.8178 11.1365 16.0747 10.8254 16.3302 10.5131C15.9125 10.2177 15.5277 9.90837 15.1691 9.5772ZM7.84879 10.3964C7.86333 10.8025 7.88231 11.2065 7.90795 11.6075C8.05101 11.4641 8.19469 11.3212 8.33911 11.1788C8.16565 10.9245 8.00209 10.6635 7.84879 10.3965V10.3964ZM10.3638 10.4067C10.0591 10.6922 9.75674 10.9801 9.45665 11.2703C9.84525 11.7878 10.2835 12.3053 10.7542 12.7989L11.6571 11.896C11.1907 11.4101 10.7548 10.9107 10.3638 10.4067H10.3638ZM17.0393 10.9818C16.7738 11.3071 16.5065 11.631 16.2375 11.9535C16.282 11.9849 16.3266 12.0157 16.371 12.0463C16.893 11.8099 17.3591 11.6163 17.7545 11.4921C17.7922 11.4803 17.8273 11.4696 17.8637 11.4582C17.576 11.3018 17.3007 11.1436 17.0393 10.9818ZM13.7537 10.9926L12.8507 11.8955C13.278 12.3029 13.7257 12.6883 14.1922 13.0502C14.4671 12.7346 14.7398 12.4171 15.0105 12.0979C14.5827 11.7548 14.1611 11.3836 13.7537 10.9925V10.9926ZM8.84081 11.8714C8.55702 12.1522 8.27538 12.435 7.99594 12.7201C7.99969 12.7594 8.00344 12.7987 8.00728 12.8379C8.38322 13.3328 8.80397 13.8268 9.25415 14.2989L10.1571 13.3959C9.6847 12.9037 9.24023 12.3911 8.84086 11.8715L8.84081 11.8714ZM18.5521 12.1898C18.6011 12.2155 18.3548 12.1879 18.0071 12.2972C17.6499 12.4092 17.1727 12.6066 16.6256 12.8566C15.5315 13.3565 14.1519 14.0658 12.7477 14.7372C11.3433 15.4088 9.9164 16.0437 8.6879 16.4002C8.65931 16.4085 8.63128 16.4159 8.60283 16.4239C9.05869 18.2687 9.75783 19.9769 10.8102 21.4708C11.3038 21.4447 11.7404 21.3427 12.1328 21.1859C12.9928 20.8422 13.6618 20.2287 14.2244 19.5357C14.7871 18.8426 15.2334 18.078 15.6622 17.4571C15.8766 17.1466 16.0852 16.8705 16.327 16.6514C16.5689 16.4322 16.8688 16.2584 17.2193 16.2584C17.9793 16.2584 18.6565 16.7689 19.3317 17.4807C19.762 17.9344 20.1914 18.495 20.6147 19.1114C20.7408 17.7526 20.9991 16.5217 20.9647 15.4821C20.9422 14.7987 20.8052 14.2086 20.4531 13.6724C20.1022 13.1381 19.5231 12.6396 18.5521 12.1898ZM12.2537 12.4925L11.3507 13.3954C11.6037 13.6365 11.8637 13.8701 12.1305 14.0958C12.2149 14.0558 12.2993 14.0164 12.3837 13.976C12.7169 13.8164 13.0493 13.655 13.3809 13.4921C12.9921 13.174 12.616 12.8406 12.2537 12.4925L12.2537 12.4925ZM10.7537 13.9925L9.85069 14.8954C9.90149 14.9438 9.95259 14.9918 10.004 15.0396C10.42 14.8715 10.8509 14.6846 11.2879 14.4867C11.1068 14.3253 10.9287 14.1605 10.7537 13.9925ZM8.2034 14.4066C8.2446 14.676 8.29027 14.9448 8.34037 15.2127L8.65711 14.896C8.50314 14.7354 8.3519 14.5723 8.20345 14.4066H8.2034Z" fill="#A90836"/>
</g>
</svg>
