<svg width="14" height="13" viewBox="0 0 14 13" fill="none" xmlns="http://www.w3.org/2000/svg">
<g id="eye-slash">
<path id="Vector" fill-rule="evenodd" clip-rule="evenodd" d="M1.84564 0.909546L0.974609 1.7803L12.1833 12.9892L13.0543 12.1182L1.84564 0.909546Z" fill="white"/>
<path id="Vector_2" d="M2.81484 3.6205L3.63468 4.44035C2.73721 5.2045 2.02256 6.15569 1.56075 6.98791L1.55934 6.99072C2.8455 9.14116 4.88625 11.1735 7.46193 10.8652C8.15718 10.782 8.80575 10.5443 9.39834 10.2043L10.2283 11.034C9.07321 11.7753 7.74909 12.168 6.31443 11.9739C3.7275 11.624 1.61221 9.50229 0.278809 7.01041C0.904871 5.75069 1.76128 4.54554 2.81484 3.6205ZM4.67953 2.4055C5.4029 2.08319 6.18562 1.89363 7.0215 1.88013C7.0679 1.87985 7.61887 1.906 7.86862 1.94707C8.02528 1.97294 8.18137 2.00529 8.33521 2.0455C10.7891 2.68479 12.6071 4.87319 13.7501 7.01041C13.2706 7.97875 12.6426 8.80985 11.8936 9.61957L11.0985 8.82447C11.6517 8.22822 12.1172 7.65419 12.4724 7.01041C12.4724 7.01041 12.111 6.34638 11.8402 5.98582C11.6661 5.75407 11.483 5.52907 11.2906 5.31222C11.1387 5.14122 10.5489 4.56044 10.4086 4.4395C9.46696 3.62979 8.36137 2.99444 7.03528 3.00513C6.52171 3.01329 6.02784 3.11454 5.559 3.28497L4.67953 2.4055Z" fill="white"/>
<path id="Vector_3" fill-rule="evenodd" clip-rule="evenodd" d="M5.04658 5.85252L5.7213 6.52695C5.67714 6.66111 5.65295 6.80455 5.65295 6.95333C5.65295 7.70483 6.26299 8.31486 7.01449 8.31486C7.16327 8.31486 7.3067 8.29095 7.44086 8.24652L8.11558 8.92124C7.78989 9.10405 7.41414 9.20811 7.01449 9.20811C5.76995 9.20811 4.7597 8.19786 4.7597 6.95333C4.7597 6.55367 4.86405 6.1782 5.04658 5.85252ZM6.97286 4.69911C6.98664 4.69883 7.0007 4.69855 7.01449 4.69855C8.25902 4.69855 9.26927 5.70908 9.26927 6.95333C9.26927 6.96739 9.26927 6.98117 9.26899 6.99495L6.97286 4.69911Z" fill="white"/>
</g>
</svg>
