<svg width="24" height="24" viewBox="0 0 24 24" fill="none" xmlns="http://www.w3.org/2000/svg">
<g id="solar:card-bold">
<g id="Mask group">
<mask id="mask0_1958_1964" style="mask-type:luminance" maskUnits="userSpaceOnUse" x="1" y="4" width="21" height="16">
<g id="Group">
<g id="Group_2">
<path id="Vector" d="M13.9995 4H9.99951C6.22851 4 4.34251 4 3.17151 5.172C2.32751 6.015 2.09151 7.229 2.02551 9.25H21.9735C21.9075 7.229 21.6715 6.015 20.8275 5.172C19.6565 4 17.7705 4 13.9995 4ZM9.99951 20H13.9995C17.7705 20 19.6565 20 20.8275 18.828C21.9995 17.657 21.9995 15.771 21.9995 12C21.9995 11.558 21.9995 11.142 21.9975 10.75H2.00151C1.99951 11.142 1.99951 11.558 1.99951 12C1.99951 15.771 1.99951 17.657 3.17151 18.828C4.34251 20 6.22851 20 9.99951 20Z" fill="white"/>
<path id="Vector_2" fill-rule="evenodd" clip-rule="evenodd" d="M5.24951 16C5.24951 15.8011 5.32853 15.6103 5.46918 15.4697C5.60983 15.329 5.8006 15.25 5.99951 15.25H9.99951C10.1984 15.25 10.3892 15.329 10.5298 15.4697C10.6705 15.6103 10.7495 15.8011 10.7495 16C10.7495 16.1989 10.6705 16.3897 10.5298 16.5303C10.3892 16.671 10.1984 16.75 9.99951 16.75H5.99951C5.8006 16.75 5.60983 16.671 5.46918 16.5303C5.32853 16.3897 5.24951 16.1989 5.24951 16ZM11.7495 16C11.7495 15.8011 11.8285 15.6103 11.9692 15.4697C12.1098 15.329 12.3006 15.25 12.4995 15.25H13.9995C14.1984 15.25 14.3892 15.329 14.5298 15.4697C14.6705 15.6103 14.7495 15.8011 14.7495 16C14.7495 16.1989 14.6705 16.3897 14.5298 16.5303C14.3892 16.671 14.1984 16.75 13.9995 16.75H12.4995C12.3006 16.75 12.1098 16.671 11.9692 16.5303C11.8285 16.3897 11.7495 16.1989 11.7495 16Z" fill="black"/>
</g>
</g>
</mask>
<g mask="url(#mask0_1958_1964)">
<path id="Vector_3" d="M-0.000488281 0H23.9995V24H-0.000488281V0Z" fill="#AB2656"/>
</g>
</g>
</g>
</svg>
