<svg width="20" height="20" viewBox="0 0 20 20" fill="none" xmlns="http://www.w3.org/2000/svg">
<g id="akar-icons:radio-fill">
<path id="Vector" fill-rule="evenodd" clip-rule="evenodd" d="M9.99984 1.66669C5.39734 1.66669 1.6665 5.39752 1.6665 10C1.6665 14.6025 5.39734 18.3334 9.99984 18.3334C14.6023 18.3334 18.3332 14.6025 18.3332 10C18.3332 5.39752 14.6023 1.66669 9.99984 1.66669ZM9.99984 6.66669C9.11578 6.66669 8.26794 7.01788 7.64281 7.643C7.01769 8.26812 6.6665 9.11597 6.6665 10C6.6665 10.8841 7.01769 11.7319 7.64281 12.357C8.26794 12.9822 9.11578 13.3334 9.99984 13.3334C10.8839 13.3334 11.7317 12.9822 12.3569 12.357C12.982 11.7319 13.3332 10.8841 13.3332 10C13.3332 9.11597 12.982 8.26812 12.3569 7.643C11.7317 7.01788 10.8839 6.66669 9.99984 6.66669Z" fill="url(#paint0_linear_235_276)"/>
</g>
<defs>
<linearGradient id="paint0_linear_235_276" x1="9.18059" y1="-5.8474" x2="25.8473" y2="10.8193" gradientUnits="userSpaceOnUse">
<stop stop-color="#CD2128"/>
<stop offset="1" stop-color="#490C3C"/>
</linearGradient>
</defs>
</svg>
