<svg width="32" height="32" viewBox="0 0 32 32" fill="none" xmlns="http://www.w3.org/2000/svg">
<g id="fluent:arrow-trending-lines-24-regular">
<g id="Vector">
<path d="M22.3319 2.66666H28.4039L28.5373 2.68533L28.6693 2.72266L28.7493 2.75733C28.8559 2.80266 28.9533 2.87066 29.0413 2.95733L29.0946 3.016L29.1533 3.092L29.2253 3.212L29.2773 3.332L29.3026 3.41733L29.3213 3.50266L29.3333 3.62933V9.672C29.3332 9.92536 29.237 10.1693 29.064 10.3544C28.891 10.5395 28.6542 10.6521 28.4014 10.6694C28.1487 10.6866 27.8988 10.6073 27.7022 10.4474C27.5057 10.2875 27.3772 10.059 27.3426 9.808L27.3333 9.672V6.07866L18.7466 14.6653C18.5773 14.8347 18.3528 14.9377 18.114 14.9555C17.8752 14.9734 17.6379 14.9049 17.4453 14.7627L17.3333 14.6667L13.2933 10.7867L5.70661 18.372C5.52818 18.5509 5.28863 18.6557 5.03612 18.6652C4.7836 18.6747 4.53686 18.5882 4.34549 18.4232C4.15413 18.2582 4.03233 18.0268 4.00458 17.7757C3.97684 17.5245 4.04521 17.2721 4.19595 17.0693L4.29328 16.9573L12.5866 8.664C12.7561 8.49484 12.9807 8.39212 13.2195 8.3745C13.4583 8.35688 13.6955 8.42554 13.8879 8.568L13.9999 8.664L18.0399 12.544L25.9173 4.66666H22.3306C22.0892 4.66633 21.856 4.57867 21.6742 4.41987C21.4924 4.26107 21.3741 4.04184 21.3413 3.80266L21.3319 3.66666C21.332 3.42501 21.4195 3.19154 21.5783 3.00942C21.7371 2.82731 21.9565 2.70886 22.1959 2.676L22.3319 2.66666ZM4.99995 22.6667C5.26516 22.6667 5.51952 22.772 5.70705 22.9596C5.89459 23.1471 5.99995 23.4014 5.99995 23.6667V28.3333C5.99995 28.5985 5.89459 28.8529 5.70705 29.0404C5.51952 29.228 5.26516 29.3333 4.99995 29.3333C4.73473 29.3333 4.48038 29.228 4.29284 29.0404C4.1053 28.8529 3.99995 28.5985 3.99995 28.3333V23.6667C3.99995 23.4014 4.1053 23.1471 4.29284 22.9596C4.48038 22.772 4.73473 22.6667 4.99995 22.6667ZM12.6666 18.3333C12.6666 18.0681 12.5613 17.8138 12.3737 17.6262C12.1862 17.4387 11.9318 17.3333 11.6666 17.3333C11.4014 17.3333 11.147 17.4387 10.9595 17.6262C10.772 17.8138 10.6666 18.0681 10.6666 18.3333V28.3333C10.6666 28.5985 10.772 28.8529 10.9595 29.0404C11.147 29.228 11.4014 29.3333 11.6666 29.3333C11.9318 29.3333 12.1862 29.228 12.3737 29.0404C12.5613 28.8529 12.6666 28.5985 12.6666 28.3333V18.3333ZM18.3333 20C18.5985 20 18.8529 20.1054 19.0404 20.2929C19.2279 20.4804 19.3333 20.7348 19.3333 21V28.3333C19.3333 28.5985 19.2279 28.8529 19.0404 29.0404C18.8529 29.228 18.5985 29.3333 18.3333 29.3333C18.0681 29.3333 17.8137 29.228 17.6262 29.0404C17.4386 28.8529 17.3333 28.5985 17.3333 28.3333V21C17.3333 20.7348 17.4386 20.4804 17.6262 20.2929C17.8137 20.1054 18.0681 20 18.3333 20ZM26 14.3333C26 14.0681 25.8946 13.8138 25.7071 13.6262C25.5195 13.4387 25.2652 13.3333 24.9999 13.3333C24.7347 13.3333 24.4804 13.4387 24.2928 13.6262C24.1053 13.8138 23.9999 14.0681 23.9999 14.3333V28.3333C23.9999 28.5985 24.1053 28.8529 24.2928 29.0404C24.4804 29.228 24.7347 29.3333 24.9999 29.3333C25.2652 29.3333 25.5195 29.228 25.7071 29.0404C25.8946 28.8529 26 28.5985 26 28.3333V14.3333Z" fill="#1A1A1A" fill-opacity="0.5"/>
<path d="M22.3319 2.33333H22.3205L22.3091 2.33411L22.1731 2.34345L22.1618 2.34422L22.1506 2.34576C21.8314 2.38958 21.5389 2.5475 21.3271 2.79033C21.1153 3.03315 20.9986 3.34445 20.9986 3.66665V3.67808L20.9994 3.68949L21.0087 3.82549L21.0095 3.83678L21.011 3.848C21.0548 4.1669 21.2125 4.4592 21.4549 4.67094C21.6974 4.88268 22.0083 4.99955 22.3302 5H22.3306H25.1125L18.0352 12.0773L14.2308 8.42358L14.224 8.41705L14.2169 8.41091L14.1049 8.31491L14.0958 8.30716L14.0863 8.30007C13.8296 8.11013 13.5134 8.01858 13.1949 8.04207C12.8765 8.06556 12.5771 8.20252 12.3511 8.42807L12.3509 8.4283L4.05758 16.7216L4.04933 16.7299L4.04168 16.7387L3.94435 16.8507L3.93601 16.8603L3.92842 16.8705C3.72743 17.1409 3.63627 17.4774 3.67326 17.8122C3.71026 18.1471 3.87265 18.4556 4.12781 18.6756C4.38297 18.8956 4.71196 19.0109 5.04864 18.9983C5.38525 18.9856 5.70459 18.846 5.94249 18.6075C5.94254 18.6075 5.94259 18.6074 5.94264 18.6074L13.298 11.2533L17.1024 14.9071L17.1092 14.9136L17.1164 14.9197L17.2284 15.0157L17.2375 15.0236L17.2472 15.0308C17.5041 15.2205 17.8205 15.3117 18.1389 15.2879C18.4573 15.2641 18.7566 15.1268 18.9823 14.901C18.9823 14.901 18.9823 14.901 18.9823 14.901L26.9999 6.8834V9.672V9.68342L27.0007 9.69482L27.0101 9.83082L27.0108 9.84217L27.0124 9.85343C27.0584 10.1881 27.2298 10.4928 27.4919 10.706C27.7539 10.9192 28.0871 11.0249 28.4242 11.0019C28.7612 10.9789 29.0769 10.8288 29.3076 10.582C29.5382 10.3351 29.6665 10.0099 29.6666 9.6721V9.672V3.62933V3.61357L29.6651 3.59789L29.6531 3.47122L29.6512 3.45114L29.6469 3.43144L29.6283 3.3461L29.6256 3.33417L29.6222 3.32246L29.5968 3.23713L29.5911 3.21789L29.5831 3.19947L29.5311 3.07947L29.5224 3.05932L29.5111 3.04049L29.4391 2.92049L29.4291 2.90376L29.4171 2.88831L29.3585 2.81231L29.3503 2.8017L29.3413 2.79177L29.2879 2.73311L29.2817 2.7263L29.2752 2.71984C29.162 2.60833 29.0308 2.51496 28.8808 2.45102C28.8804 2.45087 28.88 2.45071 28.8797 2.45055L28.8018 2.41681L28.7814 2.40797L28.76 2.40191L28.628 2.36458L28.6061 2.35838L28.5835 2.35522L28.4502 2.33655L28.4272 2.33333H28.4039H22.3319ZM4.05714 29.2761L4.05714 29.2761C4.30719 29.5262 4.64633 29.6667 4.99995 29.6667C5.35357 29.6667 5.69271 29.5262 5.94276 29.2761L5.70705 29.0404L5.94276 29.2761C6.19281 29.0261 6.33328 28.687 6.33328 28.3333V23.6667C6.33328 23.313 6.19281 22.9739 5.94276 22.7239C5.69271 22.4738 5.35357 22.3333 4.99995 22.3333C4.64633 22.3333 4.30719 22.4738 4.05714 22.7239C3.80709 22.9739 3.66661 23.313 3.66661 23.6667V28.3333C3.66661 28.687 3.80709 29.0261 4.05714 29.2761ZM10.7238 29.2761L10.9595 29.0404L10.7238 29.2761C10.9739 29.5262 11.313 29.6667 11.6666 29.6667C12.0202 29.6667 12.3594 29.5262 12.6094 29.2761C12.8595 29.0261 12.9999 28.687 12.9999 28.3333V18.3333C12.9999 17.9797 12.8595 17.6406 12.6094 17.3905C12.3594 17.1405 12.0202 17 11.6666 17C11.313 17 10.9739 17.1405 10.7238 17.3905C10.4738 17.6406 10.3333 17.9797 10.3333 18.3333V28.3333C10.3333 28.687 10.4738 29.0261 10.7238 29.2761ZM19.2761 20.0572C19.026 19.8071 18.6869 19.6667 18.3333 19.6667C17.9797 19.6667 17.6405 19.8071 17.3905 20.0572C17.1404 20.3072 16.9999 20.6464 16.9999 21V28.3333C16.9999 28.687 17.1404 29.0261 17.3905 29.2761C17.6405 29.5262 17.9797 29.6667 18.3333 29.6667C18.6869 29.6667 19.026 29.5262 19.2761 29.2761C19.5261 29.0261 19.6666 28.687 19.6666 28.3333V21C19.6666 20.6464 19.5261 20.3072 19.2761 20.0572ZM26.3333 14.3333C26.3333 13.9797 26.1928 13.6406 25.9428 13.3905C25.6927 13.1405 25.3536 13 24.9999 13C24.6463 13 24.3072 13.1405 24.0571 13.3905C23.8071 13.6406 23.6666 13.9797 23.6666 14.3333V28.3333C23.6666 28.687 23.8071 29.0261 24.0571 29.2761C24.3072 29.5262 24.6463 29.6667 24.9999 29.6667C25.3536 29.6667 25.6927 29.5262 25.9428 29.2761C26.1928 29.0261 26.3333 28.687 26.3333 28.3333V14.3333Z" stroke="#1A1A1A" stroke-opacity="0.5" stroke-width="0.666667"/>
</g>
</g>
</svg>
