<svg width="21" height="21" viewBox="0 0 21 21" fill="none" xmlns="http://www.w3.org/2000/svg">
<path d="M9.39793 17.0739C8.74615 16.422 8.31199 15.5844 8.15498 14.6759C7.99797 13.7675 8.1258 12.8328 8.52093 11.9999H2.25293C1.95742 11.9998 1.66478 12.0579 1.39174 12.1709C1.11869 12.2839 0.870605 12.4497 0.661647 12.6586C0.452689 12.8676 0.28696 13.1157 0.173933 13.3887C0.0609067 13.6618 0.00279848 13.9544 0.00292991 14.2499V15.1699C0.00292991 15.7409 0.18293 16.2989 0.51393 16.7649C2.05593 18.9279 4.57993 19.9999 7.99993 19.9999C9.41293 19.9999 10.6729 19.8169 11.7739 19.4499L9.39793 17.0739ZM7.99993 0.00390625C9.32601 0.00390625 10.5978 0.53069 11.5355 1.46837C12.4731 2.40605 12.9999 3.67782 12.9999 5.00391C12.9999 6.32999 12.4731 7.60176 11.5355 8.53944C10.5978 9.47712 9.32601 10.0039 7.99993 10.0039C6.67385 10.0039 5.40208 9.47712 4.4644 8.53944C3.52671 7.60176 2.99993 6.32999 2.99993 5.00391C2.99993 3.67782 3.52671 2.40605 4.4644 1.46837C5.40208 0.53069 6.67385 0.00390625 7.99993 0.00390625ZM15.0439 20.9949C14.9454 20.995 14.8479 20.9756 14.757 20.9378C14.666 20.9001 14.5834 20.8447 14.5139 20.7749L10.1049 16.3669C9.47129 15.7134 9.1201 14.8368 9.12718 13.9266C9.13427 13.0163 9.49906 12.1454 10.1428 11.5018C10.7865 10.8582 11.6576 10.4936 12.5678 10.4867C13.4781 10.4798 14.3545 10.8311 15.0079 11.4649L15.0439 11.5009L15.0799 11.4649C15.7333 10.8311 16.6098 10.4798 17.5201 10.4867C18.4303 10.4936 19.3013 10.8582 19.9451 11.5018C20.5888 12.1454 20.9536 13.0163 20.9607 13.9266C20.9678 14.8368 20.6166 15.7134 19.9829 16.3669L15.5739 20.7759C15.5044 20.8457 15.4219 20.9011 15.3309 20.9388C15.2399 20.9766 15.1424 20.995 15.0439 20.9949Z" fill="#8C8C8C"/>
</svg>
