<svg width="24" height="24" viewBox="0 0 24 24" fill="none" xmlns="http://www.w3.org/2000/svg">
<g id="fluent:board-games-20-filled">
<path id="Vector" d="M19.1387 6.6H19.1987C19.665 6.60012 20.1248 6.70892 20.5417 6.91777C20.9585 7.12661 21.321 7.42975 21.6003 7.80313C21.8796 8.17651 22.068 8.60984 22.1505 9.06874C22.2331 9.52764 22.2076 9.99946 22.076 10.4468C21.9443 10.8941 21.7103 11.3046 21.3924 11.6456C21.0744 11.9867 20.6814 12.2489 20.2444 12.4116C19.8074 12.5742 19.3385 12.6328 18.875 12.5826C18.4114 12.5324 17.9659 12.3748 17.5739 12.1224L18.1127 14.3472C18.1661 14.5678 18.1687 14.7977 18.1204 15.0195C18.072 15.2413 17.974 15.4492 17.8336 15.6276C17.6932 15.806 17.5142 15.9502 17.31 16.0494C17.1057 16.1485 16.8817 16.2 16.6547 16.2H15.7391C15.5121 16.1999 15.288 16.1482 15.0839 16.0489C14.8797 15.9496 14.7008 15.8053 14.5605 15.6268C14.4202 15.4483 14.3223 15.2402 14.2741 15.0184C14.2259 14.7965 14.2287 14.5666 14.2823 14.346L14.8223 12.1224C14.3167 12.4494 13.7238 12.6155 13.1219 12.5988C12.9899 12.0905 12.6948 11.6394 12.2819 11.3148C12.492 10.7675 12.5998 10.1862 12.5999 9.6C12.5999 8.6184 12.3047 7.7064 11.7995 6.9456C12.249 6.70819 12.7516 6.58925 13.2599 6.6C13.1793 6.20406 13.1793 5.79595 13.2599 5.4C13.419 4.62027 13.8814 3.93568 14.5453 3.49684C15.2092 3.05801 16.0202 2.90087 16.7999 3.06C17.5796 3.21913 18.2642 3.68149 18.7031 4.34537C19.1419 5.00925 19.2978 5.82027 19.1387 6.6ZM7.7999 6C7.10496 6.00002 6.42487 6.20118 5.84173 6.5792C5.25859 6.95722 4.79734 7.49595 4.51363 8.13034C4.22993 8.76474 4.13591 9.4677 4.24292 10.1544C4.34993 10.841 4.65341 11.482 5.1167 12H4.7999C4.48164 12 4.17642 12.1264 3.95137 12.3515C3.72633 12.5765 3.5999 12.8817 3.5999 13.2C3.5999 13.5183 3.72633 13.8235 3.95137 14.0485C4.17642 14.2736 4.48164 14.4 4.7999 14.4H5.4239C4.9775 16.5576 3.8003 17.8032 3.1439 18.3516C2.7287 18.6996 2.3999 19.2348 2.3999 19.8588C2.3999 20.82 3.1799 21.6 4.1411 21.6H11.4599C12.4199 21.6 13.1999 20.82 13.1999 19.8588C13.1999 19.2348 12.8711 18.6996 12.4559 18.3516C11.7995 17.8032 10.6223 16.5576 10.1759 14.4H10.7999C11.1182 14.4 11.4234 14.2736 11.6484 14.0485C11.8735 13.8235 11.9999 13.5183 11.9999 13.2C11.9999 12.8817 11.8735 12.5765 11.6484 12.3515C11.4234 12.1264 11.1182 12 10.7999 12H10.4831C10.9464 11.482 11.2499 10.841 11.3569 10.1544C11.4639 9.4677 11.3699 8.76474 11.0862 8.13034C10.8025 7.49595 10.3412 6.95722 9.75807 6.5792C9.17494 6.20118 8.49485 6.00002 7.7999 6Z" fill="#AB2656"/>
</g>
</svg>
