<svg width="25" height="24" viewBox="0 0 25 24" fill="none" xmlns="http://www.w3.org/2000/svg">
<g id="zondicons:portfolio" clip-path="url(#clip0_1943_1571)">
<path id="Vector" d="M11.3 14.4H1.7V21.6C1.7 22.2365 1.95286 22.847 2.40294 23.2971C2.85303 23.7471 3.46348 24 4.1 24H20.9C21.5365 24 22.147 23.7471 22.5971 23.2971C23.0471 22.847 23.3 22.2365 23.3 21.6V14.4H13.7V16.8H11.3V14.4ZM11.3 13.2H0.5V6C0.5 4.68 1.58 3.6 2.9 3.6H7.7V2.4C7.7 1.76348 7.95286 1.15303 8.40294 0.702944C8.85303 0.252856 9.46348 0 10.1 0L14.9 0C15.5365 0 16.147 0.252856 16.5971 0.702944C17.0471 1.15303 17.3 1.76348 17.3 2.4V3.6H22.1C22.7365 3.6 23.347 3.85286 23.7971 4.30294C24.2471 4.75303 24.5 5.36348 24.5 6V13.2H13.7V10.8H11.3V13.2ZM14.9 3.6V2.4H10.1V3.6H14.9Z" fill="#AB2656"/>
</g>
<defs>
<clipPath id="clip0_1943_1571">
<rect width="24" height="24" fill="white" transform="translate(0.5)"/>
</clipPath>
</defs>
</svg>
