<svg width="40" height="40" viewBox="0 0 40 40" fill="none" xmlns="http://www.w3.org/2000/svg">
<g id="cryptocurrency:chat" clip-path="url(#clip0_2057_3061)">
<path id="Vector" fill-rule="evenodd" clip-rule="evenodd" d="M20 40C8.95375 40 0 31.0462 0 20C0 8.95375 8.95375 0 20 0C31.0462 0 40 8.95375 40 20C40 31.0462 31.0462 40 20 40ZM20.35 29.1562C21.635 30.045 23.265 30.5737 25.03 30.5737C25.4688 30.5737 25.9025 30.5413 26.3288 30.4775C26.475 30.5375 26.6162 30.6112 26.79 30.7113C27.165 30.9312 27.6663 31.2687 28.29 31.7237C28.8013 32.0975 29.525 31.7362 29.525 31.1075V29.2812C29.7875 29.1112 30.035 28.9275 30.2687 28.7288C31.6812 27.5312 32.5 25.8937 32.5 24.1375C32.5 22.9812 32.15 21.9 31.535 20.9663C31.3411 21.6293 31.0784 22.2703 30.7512 22.8787C30.8813 23.2825 30.95 23.7037 30.95 24.1375C30.95 25.43 30.34 26.65 29.26 27.565C28.9814 27.8004 28.6813 28.0092 28.3638 28.1888C28.2461 28.2552 28.1482 28.3516 28.0799 28.4682C28.0116 28.5848 27.9754 28.7174 27.975 28.8525V29.6325C27.2337 29.1575 26.725 28.9338 26.3375 28.9338C26.2939 28.9339 26.2504 28.9376 26.2075 28.945C25.1215 29.1266 24.0082 29.0539 22.955 28.7325C22.102 28.954 21.2304 29.0963 20.3512 29.1575L20.35 29.1562ZM11.0175 25.5037C11.4297 25.8525 11.8658 26.172 12.3225 26.46V29.575C12.3225 30.3625 13.2288 30.8125 13.8675 30.345C15.63 29.0575 16.855 28.33 17.1613 28.2575C17.8687 28.37 18.5912 28.4262 19.3212 28.4262C25.8212 28.4262 31.1438 23.9175 31.1438 18.2763C31.1438 12.6338 25.82 8.125 19.3212 8.125C12.8225 8.125 7.5 12.6337 7.5 18.275C7.5 21.0375 8.7875 23.6138 11.0175 25.5037ZM17.2037 26.3363C16.575 26.3363 15.6563 26.78 14.2613 27.7163V25.92C14.2606 25.7509 14.2152 25.585 14.1296 25.4392C14.0439 25.2934 13.9211 25.1729 13.7738 25.09C13.2441 24.7902 12.7436 24.4416 12.2787 24.0487C10.4625 22.5125 9.4375 20.4575 9.4375 18.275C9.4375 13.7625 13.8325 10.04 19.3212 10.04C24.8113 10.04 29.205 13.7625 29.205 18.275C29.205 22.7875 24.8113 26.5112 19.3212 26.5112C18.6588 26.5112 18.005 26.4563 17.3662 26.3488C17.3125 26.3401 17.2582 26.3359 17.2037 26.3363ZM14.2825 20.1912C15.1387 20.1912 15.8325 19.5037 15.8325 18.6588C15.8325 17.8125 15.1387 17.1263 14.2825 17.1263C13.4262 17.1263 12.7325 17.8125 12.7325 18.6588C12.7325 19.505 13.4262 20.1912 14.2825 20.1912ZM19.3212 20.1912C20.1775 20.1912 20.8713 19.5037 20.8713 18.6588C20.8713 17.8125 20.1775 17.1263 19.3212 17.1263C18.465 17.1263 17.7712 17.8125 17.7712 18.6588C17.7712 19.505 18.465 20.1912 19.3212 20.1912ZM24.36 20.1912C25.2163 20.1912 25.91 19.5037 25.91 18.6588C25.91 17.8125 25.2163 17.1263 24.36 17.1263C23.5038 17.1263 22.81 17.8125 22.81 18.6588C22.81 19.505 23.5038 20.1912 24.36 20.1912Z" fill="#AB2656"/>
</g>
<defs>
<clipPath id="clip0_2057_3061">
<rect width="40" height="40" fill="white"/>
</clipPath>
</defs>
</svg>
