<svg width="32" height="32" viewBox="0 0 32 32" fill="none" xmlns="http://www.w3.org/2000/svg">
<path d="M19.668 4.10803C19.6165 4.06678 19.5574 4.03611 19.4941 4.01779C19.4307 3.99948 19.3644 3.99388 19.2989 4.00131C19.2333 4.00875 19.1699 4.02908 19.1123 4.06112C19.0546 4.09317 19.0039 4.1363 18.963 4.18803L14.36 10H11.809L17.396 2.94603C17.6005 2.68779 17.854 2.47251 18.1419 2.31255C18.4299 2.15259 18.7466 2.05111 19.0739 2.01394C19.4011 1.97677 19.7325 2.00464 20.049 2.09596C20.3655 2.18727 20.6608 2.34023 20.918 2.54603L26.065 6.66903C26.5517 7.05898 26.875 7.61674 26.9716 8.23283C27.0682 8.84893 26.931 9.47887 26.587 9.99903H23.973L24.88 8.94703C24.9239 8.89615 24.9571 8.83694 24.9776 8.77293C24.9981 8.70892 25.0055 8.64144 24.9994 8.57451C24.9932 8.50757 24.9736 8.44257 24.9418 8.38339C24.9099 8.3242 24.8665 8.27204 24.814 8.23003L22.31 6.22403L19.342 10H16.798L20.748 4.97403L19.668 4.10803ZM6 7.00003C5.20435 7.00003 4.44129 7.3161 3.87868 7.87871C3.31607 8.44132 3 9.20438 3 10V24.5C3 25.6935 3.47411 26.8381 4.31802 27.682C5.16193 28.5259 6.30653 29 7.5 29H24.5C25.6935 29 26.8381 28.5259 27.682 27.682C28.5259 26.8381 29 25.6935 29 24.5V15.5C29 14.3066 28.5259 13.162 27.682 12.3181C26.8381 11.4741 25.6935 11 24.5 11H6C5.73478 11 5.48043 10.8947 5.29289 10.7071C5.10536 10.5196 5 10.2652 5 10C5 9.73482 5.10536 9.48046 5.29289 9.29293C5.48043 9.10539 5.73478 9.00003 6 9.00003H10.58L12.176 7.00003H6ZM21 19H24C24.2652 19 24.5196 19.1054 24.7071 19.2929C24.8946 19.4805 25 19.7348 25 20C25 20.2652 24.8946 20.5196 24.7071 20.7071C24.5196 20.8947 24.2652 21 24 21H21C20.7348 21 20.4804 20.8947 20.2929 20.7071C20.1054 20.5196 20 20.2652 20 20C20 19.7348 20.1054 19.4805 20.2929 19.2929C20.4804 19.1054 20.7348 19 21 19Z" fill="#1A1A1A" fill-opacity="0.5"/>
</svg>
