<svg width="24" height="24" viewBox="0 0 24 24" fill="none" xmlns="http://www.w3.org/2000/svg">
<g id="material-symbols:pin-outline">
<path id="Vector" d="M4 20C3.45 20 2.97933 19.8043 2.588 19.413C2.19667 19.0217 2.00067 18.5507 2 18V6C2 5.45 2.196 4.97933 2.588 4.588C2.98 4.19667 3.45067 4.00067 4 4H20C20.55 4 21.021 4.196 21.413 4.588C21.805 4.98 22.0007 5.45067 22 6V18C22 18.55 21.8043 19.021 21.413 19.413C21.0217 19.805 20.5507 20.0007 20 20H4ZM6.5 15H7.65V9H6.75L5 10.25L5.6 11.15L6.5 10.5V15ZM9.6 15H13.5V14H11.15L11.1 13.95C11.45 13.6167 11.7377 13.3333 11.963 13.1C12.1883 12.8667 12.3673 12.6833 12.5 12.55C12.8 12.25 13.025 11.95 13.175 11.65C13.325 11.35 13.4 11.0333 13.4 10.7C13.4 10.2167 13.2167 9.81233 12.85 9.487C12.4833 9.16167 12.0167 8.99933 11.45 9C11.0167 9 10.625 9.125 10.275 9.375C9.925 9.625 9.68333 9.95 9.55 10.35L10.55 10.75C10.6333 10.5333 10.7543 10.3623 10.913 10.237C11.0717 10.1117 11.2507 10.0493 11.45 10.05C11.7 10.05 11.9043 10.1167 12.063 10.25C12.2217 10.3833 12.3007 10.55 12.3 10.75C12.3 10.9333 12.2667 11.1043 12.2 11.263C12.1333 11.4217 11.9833 11.6173 11.75 11.85L10.95 12.65L9.6 14V15ZM17 15C17.6 15 18.0833 14.8333 18.45 14.5C18.8167 14.1667 19 13.7333 19 13.2C19 12.9 18.9167 12.6333 18.75 12.4C18.5833 12.1667 18.35 11.9833 18.05 11.85V11.8C18.2833 11.6667 18.4667 11.4957 18.6 11.287C18.7333 11.0783 18.8 10.8327 18.8 10.55C18.8 10.1 18.625 9.729 18.275 9.437C17.925 9.145 17.4833 8.99933 16.95 9C16.5333 9 16.146 9.121 15.788 9.363C15.43 9.605 15.2007 9.90067 15.1 10.25L16.1 10.65C16.1667 10.45 16.275 10.2917 16.425 10.175C16.575 10.0583 16.75 10 16.95 10C17.1667 10 17.346 10.0627 17.488 10.188C17.63 10.3133 17.7007 10.4673 17.7 10.65C17.7 10.8833 17.6167 11.0667 17.45 11.2C17.2833 11.3333 17.0667 11.4 16.8 11.4H16.35V12.4H16.85C17.1833 12.4 17.4417 12.4667 17.625 12.6C17.8083 12.7333 17.9 12.9167 17.9 13.15C17.9 13.3667 17.8083 13.5543 17.625 13.713C17.4417 13.8717 17.2333 13.9507 17 13.95C16.7167 13.95 16.5 13.8877 16.35 13.763C16.2 13.6383 16.0667 13.4173 15.95 13.1L14.95 13.5C15.0667 13.9833 15.3043 14.3543 15.663 14.613C16.0217 14.8717 16.4673 15.0007 17 15ZM4 18H20V6H4V18Z" fill="#A90836"/>
</g>
</svg>
