<svg width="101" height="101" viewBox="0 0 101 101" fill="none" xmlns="http://www.w3.org/2000/svg">
<g id="simple-line-icons:check" clip-path="url(#clip0_1096_494)">
<path id="Vector" d="M50.5 0.5C22.8859 0.5 0.5 22.8859 0.5 50.5C0.5 78.1156 22.8859 100.5 50.5 100.5C78.1156 100.5 100.5 78.1156 100.5 50.5C100.5 22.8859 78.1156 0.5 50.5 0.5ZM50.5 94.3484C26.3766 94.3484 6.75 74.6234 6.75 50.4998C6.75 26.3764 26.3766 6.7498 50.5 6.7498C74.6234 6.7498 94.25 26.3765 94.25 50.4998C94.25 74.6231 74.6234 94.3484 50.5 94.3484ZM70.4547 32.2047L41.1187 61.725L27.9077 48.5141C26.6874 47.2938 24.7093 47.2938 23.4874 48.5141C22.2671 49.7344 22.2671 51.7125 23.4874 52.9328L38.9546 68.4016C40.1749 69.6203 42.153 69.6203 43.3749 68.4016C43.5155 68.2609 43.6359 68.1077 43.7453 67.9484L74.8766 36.6249C76.0953 35.4046 76.0953 33.4265 74.8766 32.2047C73.6547 30.9844 71.6766 30.9844 70.4547 32.2047Z" fill="#A90836"/>
</g>
<defs>
<clipPath id="clip0_1096_494">
<rect width="100" height="100" fill="white" transform="translate(0.5 0.5)"/>
</clipPath>
</defs>
</svg>
