<svg width="33" height="32" viewBox="0 0 33 32" fill="none" xmlns="http://www.w3.org/2000/svg">
<g id="fluent:arrow-trending-lines-24-regular">
<path id="Vector" d="M22.8319 2.33335H22.8205L22.8091 2.33414L22.6731 2.34347L22.6618 2.34424L22.6506 2.34578C22.3314 2.3896 22.0389 2.54753 21.8271 2.79035C21.6153 3.03318 21.4986 3.34447 21.4986 3.66667V3.6781L21.4994 3.68951L21.5087 3.82551L21.5095 3.83681L21.511 3.84802C21.5548 4.16692 21.7125 4.45922 21.9549 4.67096C22.1974 4.8827 22.5083 4.99958 22.8302 5.00002H22.8306H25.6125L18.5352 12.0773L14.7308 8.42361L14.724 8.41707L14.7169 8.41093L14.6049 8.31493L14.5958 8.30718L14.5863 8.30009C14.3296 8.11015 14.0134 8.0186 13.6949 8.04209C13.3765 8.06558 13.0771 8.20255 12.8511 8.42809L12.8509 8.42832L4.55758 16.7217L4.54933 16.7299L4.54168 16.7387L4.44435 16.8507L4.43601 16.8603L4.42842 16.8705C4.22743 17.1409 4.13627 17.4774 4.17326 17.8123C4.21026 18.1472 4.37265 18.4556 4.62781 18.6756C4.88297 18.8957 5.21196 19.0109 5.54864 18.9983C5.88525 18.9856 6.20459 18.846 6.44249 18.6075C6.44254 18.6075 6.44259 18.6074 6.44264 18.6074L13.798 11.2534L17.6024 14.9071L17.6092 14.9136L17.6164 14.9198L17.7284 15.0158L17.7375 15.0236L17.7472 15.0308C18.0041 15.2205 18.3205 15.3118 18.6389 15.2879C18.9573 15.2641 19.2566 15.1268 19.4823 14.9011C19.4823 14.901 19.4823 14.901 19.4823 14.901L27.4999 6.88343V9.67202V9.68345L27.5007 9.69485L27.5101 9.83084L27.5108 9.84219L27.5124 9.85345C27.5584 10.1881 27.7298 10.4928 27.9919 10.706C28.2539 10.9192 28.5871 11.025 28.9242 11.0019C29.2612 10.9789 29.5769 10.8288 29.8076 10.582C30.0382 10.3351 30.1665 10.0099 30.1666 9.67212V9.67202V3.62935V3.6136L30.1651 3.59791L30.1531 3.47125L30.1512 3.45117L30.1469 3.43146L30.1283 3.34613L30.1256 3.3342L30.1222 3.32249L30.0968 3.23715L30.0911 3.21791L30.0831 3.19949L30.0311 3.07949L30.0224 3.05934L30.0111 3.04052L29.9391 2.92052L29.9291 2.90378L29.9171 2.88834L29.8585 2.81234L29.8503 2.80172L29.8413 2.7918L29.7879 2.73313L29.7817 2.72632L29.7752 2.71986C29.662 2.60836 29.5308 2.51498 29.3808 2.45105C29.3804 2.45089 29.38 2.45073 29.3797 2.45058L29.3018 2.41684L29.2814 2.40799L29.26 2.40194L29.128 2.3646L29.1061 2.3584L29.0835 2.35524L28.9502 2.33657L28.9272 2.33335H28.9039H22.8319ZM4.55714 29.2762L4.55714 29.2762C4.80719 29.5262 5.14633 29.6667 5.49995 29.6667C5.85357 29.6667 6.19271 29.5262 6.44276 29.2762L6.20705 29.0405L6.44276 29.2762C6.69281 29.0261 6.83328 28.687 6.83328 28.3334V23.6667C6.83328 23.3131 6.69281 22.9739 6.44276 22.7239C6.19271 22.4738 5.85357 22.3334 5.49995 22.3334C5.14633 22.3334 4.80719 22.4738 4.55714 22.7239C4.30709 22.9739 4.16661 23.3131 4.16661 23.6667V28.3334C4.16661 28.687 4.30709 29.0261 4.55714 29.2762ZM11.2238 29.2762L11.4595 29.0405L11.2238 29.2762C11.4739 29.5262 11.813 29.6667 12.1666 29.6667C12.5202 29.6667 12.8594 29.5262 13.1094 29.2762C13.3595 29.0261 13.4999 28.687 13.4999 28.3334V18.3334C13.4999 17.9797 13.3595 17.6406 13.1094 17.3905C12.8594 17.1405 12.5202 17 12.1666 17C11.813 17 11.4739 17.1405 11.2238 17.3905C10.9738 17.6406 10.8333 17.9797 10.8333 18.3334V28.3334C10.8333 28.687 10.9738 29.0261 11.2238 29.2762ZM19.7761 20.0572C19.526 19.8072 19.1869 19.6667 18.8333 19.6667C18.4797 19.6667 18.1405 19.8072 17.8905 20.0572C17.6404 20.3073 17.4999 20.6464 17.4999 21V28.3334C17.4999 28.687 17.6404 29.0261 17.8905 29.2762C18.1405 29.5262 18.4797 29.6667 18.8333 29.6667C19.1869 29.6667 19.526 29.5262 19.7761 29.2762C20.0261 29.0261 20.1666 28.687 20.1666 28.3334V21C20.1666 20.6464 20.0261 20.3073 19.7761 20.0572ZM26.8333 14.3334C26.8333 13.9797 26.6928 13.6406 26.4428 13.3905C26.1927 13.1405 25.8536 13 25.4999 13C25.1463 13 24.8072 13.1405 24.5571 13.3905C24.3071 13.6406 24.1666 13.9797 24.1666 14.3334V28.3334C24.1666 28.687 24.3071 29.0261 24.5571 29.2762C24.8072 29.5262 25.1463 29.6667 25.4999 29.6667C25.8536 29.6667 26.1927 29.5262 26.4428 29.2762C26.6928 29.0261 26.8333 28.687 26.8333 28.3334V14.3334Z" fill="url(#paint0_linear_411_291)" stroke="url(#paint1_linear_411_291)" stroke-width="0.666667"/>
</g>
<defs>
<linearGradient id="paint0_linear_411_291" x1="15.9206" y1="-9.35585" x2="42.5523" y2="15.9457" gradientUnits="userSpaceOnUse">
<stop stop-color="#CD2128"/>
<stop offset="1" stop-color="#490C3C"/>
</linearGradient>
<linearGradient id="paint1_linear_411_291" x1="15.9206" y1="-9.35585" x2="42.5523" y2="15.9457" gradientUnits="userSpaceOnUse">
<stop stop-color="#CD2128"/>
<stop offset="1" stop-color="#490C3C"/>
</linearGradient>
</defs>
</svg>
