<svg width="16" height="16" viewBox="0 0 16 16" fill="none" xmlns="http://www.w3.org/2000/svg">
<g id="octicon:info-24" clip-path="url(#clip0_866_6761)">
<path id="Vector" d="M8.6665 4.99998C8.6665 5.17679 8.59627 5.34636 8.47124 5.47138C8.34622 5.59641 8.17665 5.66665 7.99984 5.66665C7.82303 5.66665 7.65346 5.59641 7.52843 5.47138C7.40341 5.34636 7.33317 5.17679 7.33317 4.99998C7.33317 4.82317 7.40341 4.6536 7.52843 4.52858C7.65346 4.40355 7.82303 4.33331 7.99984 4.33331C8.17665 4.33331 8.34622 4.40355 8.47124 4.52858C8.59627 4.6536 8.6665 4.82317 8.6665 4.99998ZM6.6665 7.49998C6.6665 7.36737 6.71918 7.24019 6.81295 7.14643C6.90672 7.05266 7.0339 6.99998 7.1665 6.99998H8.1665C8.29911 6.99998 8.42629 7.05266 8.52006 7.14643C8.61383 7.24019 8.6665 7.36737 8.6665 7.49998V10.3333H9.1665C9.29911 10.3333 9.42629 10.386 9.52006 10.4798C9.61383 10.5735 9.6665 10.7007 9.6665 10.8333C9.6665 10.9659 9.61383 11.0931 9.52006 11.1869C9.42629 11.2806 9.29911 11.3333 9.1665 11.3333H7.1665C7.0339 11.3333 6.90672 11.2806 6.81295 11.1869C6.71918 11.0931 6.6665 10.9659 6.6665 10.8333C6.6665 10.7007 6.71918 10.5735 6.81295 10.4798C6.90672 10.386 7.0339 10.3333 7.1665 10.3333H7.6665V7.99998H7.1665C7.0339 7.99998 6.90672 7.9473 6.81295 7.85353C6.71918 7.75976 6.6665 7.63259 6.6665 7.49998Z" fill="#1A1A1A" fill-opacity="0.5"/>
<path id="Vector_2" d="M7.99984 0.666687C12.0498 0.666687 15.3332 3.95002 15.3332 8.00002C15.3332 12.05 12.0498 15.3334 7.99984 15.3334C3.94984 15.3334 0.666504 12.05 0.666504 8.00002C0.666504 3.95002 3.94984 0.666687 7.99984 0.666687ZM1.6665 8.00002C1.6665 9.67972 2.33376 11.2906 3.52149 12.4784C4.70922 13.6661 6.32013 14.3334 7.99984 14.3334C9.67954 14.3334 11.2905 13.6661 12.4782 12.4784C13.6659 11.2906 14.3332 9.67972 14.3332 8.00002C14.3332 6.32032 13.6659 4.70941 12.4782 3.52168C11.2905 2.33395 9.67954 1.66669 7.99984 1.66669C6.32013 1.66669 4.70922 2.33395 3.52149 3.52168C2.33376 4.70941 1.6665 6.32032 1.6665 8.00002Z" fill="#1A1A1A" fill-opacity="0.5"/>
</g>
<defs>
<clipPath id="clip0_866_6761">
<rect width="16" height="16" fill="white"/>
</clipPath>
</defs>
</svg>
