<svg width="19" height="24" viewBox="0 0 19 24" fill="none" xmlns="http://www.w3.org/2000/svg">
<g id="Frame 1171274907">
<path id="Vector" d="M18.2226 0C18.3423 1.21757 18.3237 2.44478 18.1673 3.65818C17.9573 5.28597 17.7347 7.01954 16.6611 8.48944C14.8801 10.9272 11.743 11.2966 10.8462 11.3677C10.5702 10.5153 10.4431 9.62178 10.4704 8.72627C10.4862 8.20051 10.5573 5.92698 12.133 4.18551C12.7803 3.46872 13.1434 3.43872 15.0096 2.25143C16.4069 1.36254 17.5121 0.554174 18.2226 0Z" fill="#AB2656"/>
<path id="Vector_2" d="M8.85998 12.8802C9.3589 10.6698 7.98373 8.12946 6.17595 6.80008C5.33443 6.18433 4.26555 5.84014 2.13095 5.15334C1.24522 4.86915 0.503163 4.67969 -0.000488281 4.54865C0.24503 4.88194 0.456595 5.23896 0.631049 5.61436C1.43152 7.3432 0.905768 8.3205 1.28469 9.68304C1.91623 11.9392 4.41238 13.0302 4.84498 13.2181C6.01856 13.724 7.30804 13.8998 8.57421 13.7265C8.70007 13.4557 8.7959 13.1719 8.85998 12.8802Z" fill="#AB2656"/>
<path id="Vector_3" d="M14.8819 6.69903C12.0794 9.45727 11.6232 11.6377 11.2884 13.2291L11.2632 13.3523C10.9853 14.6706 10.9743 15.9258 10.9474 18.4267C10.93 20.2534 10.99 22.0912 11.1258 23.8926L9.70486 24C9.64644 23.2311 9.60223 22.4543 9.57223 21.6759C9.5715 21.6728 9.5715 21.6696 9.57223 21.6665C9.53592 20.8028 9.51855 19.9297 9.51855 19.0677C9.51855 18.8514 9.51855 18.6351 9.51855 18.4188C9.53592 16.5763 9.5454 15.3858 9.65907 14.3296C9.70644 13.897 9.77117 13.4881 9.85959 13.0665L9.88643 12.9449C10.2496 11.2682 10.7769 8.74522 13.8809 5.68384L14.8819 6.69903Z" fill="#AB2656"/>
<path id="Vector_4" d="M9.67167 14.3248C9.558 15.3811 9.54853 16.5715 9.53116 18.414C9.53116 18.6303 9.53116 18.8466 9.53116 19.0629C9.47519 18.5598 9.39138 18.0601 9.28012 17.5662C9.13811 16.9374 8.95133 16.3195 8.72121 15.7174C8.24503 14.4775 7.58622 13.3158 6.7666 12.2708L7.88126 11.3945C8.59003 12.2983 9.1909 13.2817 9.67167 14.3248Z" fill="#AB2656"/>
</g>
</svg>
