<svg width="24" height="24" viewBox="0 0 24 24" fill="none" xmlns="http://www.w3.org/2000/svg">
<g id="fluent:arrow-trending-lines-20-filled">
<path id="Vector" d="M16.8001 3.30002C16.8001 3.06133 16.8949 2.83241 17.0637 2.66363C17.2325 2.49485 17.4614 2.40002 17.7001 2.40002H20.7001C20.9388 2.40002 21.1677 2.49485 21.3365 2.66363C21.5053 2.83241 21.6001 3.06133 21.6001 3.30002V6.30002C21.6001 6.53872 21.5053 6.76764 21.3365 6.93642C21.1677 7.1052 20.9388 7.20002 20.7001 7.20002C20.4614 7.20002 20.2325 7.1052 20.0637 6.93642C19.8949 6.76764 19.8001 6.53872 19.8001 6.30002V5.47202L14.4361 10.836C14.2673 11.0046 14.0386 11.0992 13.8001 11.0992C13.5616 11.0992 13.3328 11.0046 13.1641 10.836L10.2001 7.87202L5.13609 12.936C5.05369 13.0244 4.95433 13.0954 4.84393 13.1446C4.73353 13.1938 4.61436 13.2202 4.49351 13.2223C4.37267 13.2245 4.25264 13.2022 4.14057 13.157C4.0285 13.1117 3.9267 13.0443 3.84124 12.9589C3.75578 12.8734 3.6884 12.7716 3.64314 12.6595C3.59787 12.5475 3.57564 12.4274 3.57778 12.3066C3.57991 12.1858 3.60636 12.0666 3.65555 11.9562C3.70474 11.8458 3.77566 11.7464 3.86409 11.664L9.56409 5.96402C9.73284 5.79548 9.96159 5.70082 10.2001 5.70082C10.4386 5.70082 10.6673 5.79548 10.8361 5.96402L13.8001 8.92802L18.5281 4.20002H17.7001C17.4614 4.20002 17.2325 4.1052 17.0637 3.93642C16.8949 3.76764 16.8001 3.53872 16.8001 3.30002ZM4.50009 16.8C4.73878 16.8 4.9677 16.8948 5.13648 17.0636C5.30527 17.2324 5.40009 17.4613 5.40009 17.7V20.7C5.40009 20.9387 5.30527 21.1676 5.13648 21.3364C4.9677 21.5052 4.73878 21.6 4.50009 21.6C4.26139 21.6 4.03247 21.5052 3.86369 21.3364C3.69491 21.1676 3.60009 20.9387 3.60009 20.7V17.7C3.60009 17.4613 3.69491 17.2324 3.86369 17.0636C4.03247 16.8948 4.26139 16.8 4.50009 16.8ZM10.2001 14.1C10.2001 13.8613 10.1053 13.6324 9.93648 13.4636C9.7677 13.2948 9.53878 13.2 9.30009 13.2C9.06139 13.2 8.83247 13.2948 8.66369 13.4636C8.49491 13.6324 8.40009 13.8613 8.40009 14.1V20.7C8.40009 20.9387 8.49491 21.1676 8.66369 21.3364C8.83247 21.5052 9.06139 21.6 9.30009 21.6C9.53878 21.6 9.7677 21.5052 9.93648 21.3364C10.1053 21.1676 10.2001 20.9387 10.2001 20.7V14.1ZM14.1001 15.6C14.3388 15.6 14.5677 15.6948 14.7365 15.8636C14.9053 16.0324 15.0001 16.2613 15.0001 16.5V20.7C15.0001 20.9387 14.9053 21.1676 14.7365 21.3364C14.5677 21.5052 14.3388 21.6 14.1001 21.6C13.8614 21.6 13.6325 21.5052 13.4637 21.3364C13.2949 21.1676 13.2001 20.9387 13.2001 20.7V16.5C13.2001 16.2613 13.2949 16.0324 13.4637 15.8636C13.6325 15.6948 13.8614 15.6 14.1001 15.6ZM19.8001 11.7C19.8001 11.4613 19.7053 11.2324 19.5365 11.0636C19.3677 10.8948 19.1388 10.8 18.9001 10.8C18.6614 10.8 18.4325 10.8948 18.2637 11.0636C18.0949 11.2324 18.0001 11.4613 18.0001 11.7V20.7C18.0001 20.9387 18.0949 21.1676 18.2637 21.3364C18.4325 21.5052 18.6614 21.6 18.9001 21.6C19.1388 21.6 19.3677 21.5052 19.5365 21.3364C19.7053 21.1676 19.8001 20.9387 19.8001 20.7V11.7Z" fill="#A90836"/>
</g>
</svg>
