<svg width="287" height="95" viewBox="0 0 287 95" fill="none" xmlns="http://www.w3.org/2000/svg">
<g clip-path="url(#clip0_2138_556)">
<rect width="286.026" height="94.6538" fill="#AB2656"/>
<g opacity="0.2">
<path d="M151.266 -32.5678C132.925 -28.9795 143.219 9.57908 124.876 13.1559C113.624 15.3502 107.154 -1.15955 97.0102 4.18399C87.3346 9.28111 94.1918 21.621 87.8769 30.5162C70.5251 54.9576 20.1737 4.69482 11.2178 36.8206C-1.78888 83.4773 88.6689 53.7748 83.7056 88.0501C80.996 106.76 45.0476 110.28 54.2942 126.736C68.2001 151.484 100.212 99.7913 124.24 113.524C140.309 122.707 132.358 151.437 150.897 152.545C172.492 153.836 159.275 117.158 175.852 103.25C205.414 78.4482 256.058 144.666 274.338 110.798C292.662 76.85 211.281 72.4555 212.725 34.0326C213.425 15.3947 245.613 4.00751 233.293 -9.99498C220.23 -24.8407 201.044 11.0879 181.674 6.67781C162.421 2.29443 170.685 -36.3672 151.266 -32.5678Z" stroke="white" stroke-opacity="0.6" stroke-width="17.8102" stroke-dasharray="1.19 1.19"/>
</g>
</g>
<defs>
<clipPath id="clip0_2138_556">
<rect width="286.026" height="94.6538" fill="white"/>
</clipPath>
</defs>
</svg>
