<svg width="57" height="56" viewBox="0 0 57 56" fill="none" xmlns="http://www.w3.org/2000/svg">
<g id="icon-park-solid:check-one">
<g id="Mask group">
<mask id="mask0_1958_1977" style="mask-type:luminance" maskUnits="userSpaceOnUse" x="2" y="2" width="53" height="52">
<g id="Group">
<g id="Group_2">
<path id="Vector" d="M28.4989 51.3334C31.5636 51.3373 34.599 50.7356 37.4304 49.5627C40.2619 48.3899 42.8336 46.669 44.9979 44.499C47.1678 42.3348 48.8887 39.763 50.0616 36.9316C51.2344 34.1001 51.8362 31.0648 51.8322 28C51.8361 24.9353 51.2344 21.9 50.0615 19.0685C48.8886 16.2371 47.1678 13.6653 44.9979 11.501C42.8336 9.33107 40.2619 7.6102 37.4304 6.43734C34.599 5.26447 31.5636 4.66274 28.4989 4.66671C25.4341 4.6628 22.3988 5.26457 19.5674 6.43743C16.7359 7.61029 14.1642 9.33112 11.9999 11.501C9.82996 13.6653 8.10913 16.2371 6.93627 19.0685C5.76341 21.9 5.16164 24.9353 5.16555 28C5.16158 31.0648 5.76331 34.1001 6.93618 36.9316C8.10904 39.763 9.82991 42.3348 11.9999 44.499C14.1642 46.6689 16.7359 48.3898 19.5674 49.5626C22.3988 50.7355 25.4341 51.3373 28.4989 51.3334Z" fill="white" stroke="white" stroke-width="4.66667" stroke-linejoin="round"/>
<path id="Vector_2" d="M19.1655 28L26.1655 35L40.1655 21" stroke="black" stroke-width="4.66667" stroke-linecap="round" stroke-linejoin="round"/>
</g>
</g>
</mask>
<g mask="url(#mask0_1958_1977)">
<path id="Vector_3" d="M0.499512 0H56.4995V56H0.499512V0Z" fill="#AB2656"/>
</g>
</g>
</g>
</svg>
