<svg width="24" height="24" viewBox="0 0 24 24" fill="none" xmlns="http://www.w3.org/2000/svg">
<g id="material-symbols-light:news">
<path id="Vector" d="M5.615 20C5.155 20 4.771 19.846 4.463 19.538C4.15433 19.2293 4 18.845 4 18.385V5.615C4 5.155 4.15433 4.771 4.463 4.463C4.771 4.15433 5.155 4 5.615 4H15.577L20 8.423V18.385C20 18.845 19.846 19.229 19.538 19.537C19.2293 19.8457 18.845 20 18.385 20H5.615ZM7.5 16H16.5V15H7.5V16ZM7.5 12.5H16.5V11.5H7.5V12.5ZM15 9H19L15 5V9ZM7.5 9H12V8H7.5V9Z" fill="#AB2656"/>
</g>
</svg>
