<svg width="32" height="32" viewBox="0 0 32 32" fill="none" xmlns="http://www.w3.org/2000/svg">
<g id="ph:books-fill">
<path id="Vector" d="M28.9562 24.3187L24.8075 4.59375C24.7538 4.3358 24.6497 4.091 24.5012 3.8734C24.3526 3.6558 24.1626 3.4697 23.9419 3.32579C23.7212 3.18187 23.4742 3.08298 23.2152 3.03479C22.9562 2.98661 22.6902 2.99008 22.4325 3.045L16.5812 4.3025C16.0637 4.41582 15.6118 4.72892 15.3239 5.17368C15.036 5.61844 14.9353 6.1589 15.0437 6.6775L19.1925 26.4025C19.285 26.8525 19.5295 27.257 19.8851 27.5479C20.2407 27.8389 20.6856 27.9985 21.145 28C21.287 27.9998 21.4286 27.9847 21.5675 27.955L27.4188 26.6975C27.9369 26.5839 28.3893 26.2702 28.6772 25.8247C28.9652 25.3791 29.0655 24.8379 28.9562 24.3187ZM17 6.26875V6.2575L22.85 5.0075L23.2663 6.99125L17.4163 8.25L17 6.26875ZM18.25 12.1912L17.8312 10.2037L23.6838 8.94625L24.1012 10.9337L18.25 12.1912ZM27 24.7425L21.15 25.9925L20.7337 24.0087L26.5837 22.75L27 24.7312V24.7425ZM13 4H7C6.46957 4 5.96086 4.21071 5.58579 4.58578C5.21071 4.96086 5 5.46956 5 6V26C5 26.5304 5.21071 27.0391 5.58579 27.4142C5.96086 27.7893 6.46957 28 7 28H13C13.5304 28 14.0391 27.7893 14.4142 27.4142C14.7893 27.0391 15 26.5304 15 26V6C15 5.46956 14.7893 4.96086 14.4142 4.58578C14.0391 4.21071 13.5304 4 13 4ZM7 6H13V8H7V6ZM13 26H7V24H13V26Z" fill="#1A1A1A" fill-opacity="0.5"/>
</g>
</svg>
