<svg width="18" height="20" viewBox="0 0 18 20" fill="none" xmlns="http://www.w3.org/2000/svg">
<g id="fontisto:person" clip-path="url(#clip0_2023_2162)">
<path id="Vector" d="M16.3713 14.4128C15.5295 13.2826 14.3276 12.4731 12.9638 12.1178L12.9213 12.1087L11.9388 13.767C11.9381 13.9878 11.8501 14.1994 11.694 14.3555C11.5379 14.5117 11.3263 14.5997 11.1055 14.6003C10.6471 14.6003 10.2721 14.2253 9.83463 13.122V13.0953C9.83463 12.8191 9.72489 12.5541 9.52954 12.3588C9.33419 12.1634 9.06924 12.0537 8.79297 12.0537C8.5167 12.0537 8.25175 12.1634 8.0564 12.3588C7.86105 12.5541 7.7513 12.8191 7.7513 13.0953V13.1228V13.1212C7.28464 14.2253 6.9063 14.5995 6.4488 14.5995C6.22799 14.5988 6.01641 14.5108 5.86028 14.3547C5.70414 14.1985 5.61613 13.987 5.61547 13.7662L4.6638 12.1045C3.29067 12.4537 2.07776 13.261 1.22547 14.3928L1.2138 14.4087C0.875968 14.9612 0.687851 15.5922 0.667969 16.2395V16.2453C0.672135 16.3703 0.667969 16.5162 0.667969 16.662V18.3287C0.667969 18.7707 0.843564 19.1946 1.15612 19.5072C1.46868 19.8197 1.89261 19.9953 2.33464 19.9953H15.2513C15.6933 19.9953 16.1173 19.8197 16.4298 19.5072C16.7424 19.1946 16.918 18.7707 16.918 18.3287V16.662C16.918 16.517 16.9138 16.3703 16.918 16.2453C16.897 15.5906 16.7057 14.9527 16.363 14.3945L16.3721 14.4112L16.3713 14.4128ZM4.41714 4.40866C4.41714 6.84199 5.9338 10.417 8.79214 10.417C11.6005 10.417 13.1671 6.84199 13.1671 4.40866V4.35449C13.1671 3.77996 13.054 3.21105 12.8341 2.68025C12.6142 2.14945 12.292 1.66716 11.8857 1.2609C11.4795 0.854644 10.9972 0.532384 10.4664 0.312519C9.93558 0.0926549 9.36667 -0.0205078 8.79214 -0.0205078C8.2176 -0.0205078 7.64869 0.0926549 7.1179 0.312519C6.5871 0.532384 6.1048 0.854644 5.69854 1.2609C5.29229 1.66716 4.97003 2.14945 4.75016 2.68025C4.5303 3.21105 4.41714 3.77996 4.41714 4.35449V4.41116V4.40866Z" fill="#AB2656"/>
</g>
<defs>
<clipPath id="clip0_2023_2162">
<rect width="16.6667" height="20" fill="white" transform="translate(0.666748)"/>
</clipPath>
</defs>
</svg>
