<svg width="24" height="24" viewBox="0 0 24 24" fill="none" xmlns="http://www.w3.org/2000/svg">
<g id="ic:round-history">
<path id="Vector" d="M13.2595 3.00001C8.16954 2.86001 3.99954 6.95001 3.99954 12H2.20954C1.75954 12 1.53954 12.54 1.85954 12.85L4.64954 15.65C4.84954 15.85 5.15954 15.85 5.35954 15.65L8.14954 12.85C8.21864 12.7795 8.26533 12.6901 8.28373 12.5932C8.30212 12.4962 8.29139 12.3959 8.25289 12.305C8.21439 12.2141 8.14985 12.1366 8.06739 12.0824C7.98493 12.0281 7.88826 11.9994 7.78954 12H5.99954C5.99954 8.10001 9.17954 4.95001 13.0995 5.00001C16.8195 5.05001 19.9495 8.18001 19.9995 11.9C20.0495 15.81 16.8995 19 12.9995 19C11.3895 19 9.89954 18.45 8.71954 17.52C8.52801 17.3691 8.28769 17.2939 8.04431 17.3087C7.80093 17.3234 7.57146 17.4271 7.39954 17.6C6.97954 18.02 7.00954 18.73 7.47954 19.09C9.05067 20.3325 10.9965 21.0058 12.9995 21C18.0495 21 22.1395 16.83 21.9995 11.74C21.8695 7.05001 17.9495 3.13001 13.2595 3.00001ZM12.7495 8.00001C12.3395 8.00001 11.9995 8.34001 11.9995 8.75001V12.43C11.9995 12.78 12.1895 13.11 12.4895 13.29L15.6095 15.14C15.9695 15.35 16.4295 15.23 16.6395 14.88C16.8495 14.52 16.7295 14.06 16.3795 13.85L13.4995 12.14V8.74001C13.4995 8.34001 13.1595 8.00001 12.7495 8.00001Z" fill="#AB2656"/>
</g>
</svg>
